<svg width="208" height="208" viewBox="0 0 208 208" fill="none" xmlns="http://www.w3.org/2000/svg">
<path fill-rule="evenodd" clip-rule="evenodd" d="M207.333 104C207.333 161.069 161.069 207.333 104 207.333C46.9305 207.333 0.666656 161.069 0.666656 104C0.666656 46.9305 46.9305 0.666656 104 0.666656C161.069 0.666656 207.333 46.9305 207.333 104ZM135 73C135 90.1213 121.121 104 104 104C86.8787 104 73 90.1213 73 73C73 55.8792 86.8787 42 104 42C121.121 42 135 55.8792 135 73ZM104 191.833C122.435 191.833 139.544 186.154 153.671 176.449C159.912 172.163 162.578 163.997 158.951 157.353C151.43 143.58 135.932 135 103.999 135C72.0668 135 56.5697 143.579 49.0488 157.353C45.4208 163.997 48.0874 172.162 54.3272 176.448C68.4552 186.153 85.5643 191.833 104 191.833Z" fill="#c8c8c8"/>
</svg>
